<?xml version="1.0" encoding="UTF-8"?><svg id="Layer_2" xmlns="http://www.w3.org/2000/svg" viewBox="0 0 540.46 600"><defs><style>.cls-1{fill:#304228;}</style></defs><g id="Layer_1-2"><path class="cls-1" d="m306.74,148.27c0-45.8,33.37-72.24,83.62-72.24,45.8,0,60.2,25.78,60.2,52.87,0,22.51-13.74,44.49-44.49,51.43-8.24,45.28,25.65,65.95,57.06,65.95,36.51,0,77.34-24.47,77.34-78.52,0-63.47-67.26-95.4-150.49-95.4-7.72,0-15.31.39-23.03,1.05,5.1-1.96,10.08-4.45,14.53-7.46,3.8-2.75,7.46-5.89,10.6-9.29,2.49-2.75,4.45-5.76,6.15-9.03,2.22-4.84,3.27-10.21,3.27-15.57,0-20.41-14.79-32.06-33.24-32.06-17.01,0-34.68,10.73-34.68,30.23,0,6.28,2.62,14.39,10.08,19.5,3.14-3.14,7.33-5.11,11.65-5.11,8.11,0,13.87,5.63,13.87,13.48,0,9.95-9.95,15.57-18.71,16.62-4.71.52-9.55.13-14.39-.13-6.81-.52-13.48-1.44-20.15-2.62-2.09-.39-4.06-.79-6.02-1.18-12.43-2.62-24.6-6.41-36.64-10.73-12.04-4.45-23.95-9.42-35.86-14.53-2.36-1.05-4.71-2.09-7.07-3.14-36.51-15.7-73.15-31.67-112.8-31.67C48.42,10.73,0,57.19,0,121.96c0,57.71,46.59,85.98,91.21,85.98,40.83,0,81-24.47,81-73.41,0-20.15-8.77-41.48-35.2-54.05-9.42,16.88-26.96,25.13-43.97,25.13-59.02,0-67.26-91.08,24.47-91.08,11.12,0,22.12,1.31,32.98,3.53,10.99,2.23,21.72,5.37,32.19,9.03,10.86,3.79,21.33,7.98,31.93,12.43,10.6,4.45,21.2,9.16,31.8,13.61,10.73,4.45,21.46,8.64,32.45,12.43,10.86,3.66,21.98,6.94,33.24,9.16,8.11,1.57,16.36,2.75,24.6,3.01-71.32,14.92-129.16,59.94-129.16,130.21,0,140.81,238.69,152.72,238.69,268.92,0,61.51-49.07,119.35-162.66,119.35-33.5,0-61.51-5.63-84.67-15.31,21.85-7.33,41.61-16.36,56.66-28.4,7.72-6.15,13.87-14.26,18.58-22.51-15.18-2.62-30.36-9.42-43.84-19.89.13,0,.26,0,.39.13,9.16,5.5,20.41,8.77,33.37,8.77,45.15,0,79.7-32.06,79.7-77.99.64-11.65-2.76-23.44-7.49-34-5.34-11.93-13.02-22.71-22.21-31.99-5.96-6.01-12.53-11.4-19.51-16.19-48.16-32.98-88.99-47.63-93.7-108.09l-14,91.73c-53.65,12.69-98.93,54.57-96.18,118.95,0,73.28,60.33,138.58,192.89,138.58,145.65,0,253.09-82.97,253.09-197.21,0-140.81-229.92-158.34-229.92-254.53Zm-122.88,213.69l-22.9,146.43c-2.62,16.36-5.76,29.71-9.29,40.96-23.69-24.34-35.2-55.62-35.2-88.2,0-56.14,28.14-100.24,72.89-112.54,7.07-1.7,14.26-2.88,21.59-3.4,1.57-.13,3.14-.26,4.71-.26,37.03,0,49.6,22.64,49.6,43.97,0,26.43-20.68,55.22-58.36,55.88,27.22-9.55,40.96-30.49,40.96-49.2,0-21.2-17.54-39.52-53-35.72-3.66.39-7.33,1.18-10.99,2.09Z"/></g></svg>