<?xml version="1.0" encoding="UTF-8"?><svg id="Layer_2" xmlns="http://www.w3.org/2000/svg" viewBox="0 0 461.58 398.29"><defs><style>.cls-1{fill:#fff;}</style></defs><g id="Layer_1-2"><path class="cls-1" d="m351.55,163.48l.36-94.14c0-9.52.62-17.35,1.89-23.8,3.78-19.3,25.72-29.26,42.74-19.43.06.04.12.07.18.11,15.94,9.28,21.18,17.97,21.18,17.97l11.35,32.82h13.41s-2.43-49.63-2.43-49.63C401.4,1.36,367.65,0,334.72,0c-80.51.61-121.98,54.28-121.98,104.3,0,14.74,2.65,27.52,7.48,38.74.43,1.01-.91,1.8-1.58.94L109.78,3.47h-47.35s-26.6,0-26.6,0H0s1.83,9.14,1.83,9.14c0,0,40.78-.49,78.17,47.22l248.77,317.46h0s6.87,8.77,6.87,8.77c-3.27.35-6.62.57-10.07.61-37.81,0-72.58-16.46-93.92-54.89l-19.52-50.01h-10.37s4.27,96.37,4.27,96.37c34.77,10.98,78.68,20.73,115.88,20.12,86,0,139.67-60.99,139.67-117.71,0-64.15-44.22-92.93-110.03-117.08Zm-58.56-141.13c7.52-4.42,16.66-5.24,24.84-2.18,16.02,5.99,21.28,18.45,21.28,47.96l.24,90.81c-44.05-16.83-78.43-36.19-78.43-80.27,0-23.69,12.02-44.55,32.07-56.33Zm-46.46,157.63c-.68-.88.46-1.99,1.32-1.29,18.82,15.44,43.83,26.68,71.62,36.6,7.01,2.44,13.7,4.92,20.04,7.48l.2,75.28-1.22.62-91.96-118.69Zm104.18,203.22l.59-155.36c35.86,16.46,57.82,37.58,57.82,76.5,0,37.71-21.99,68.77-58.41,78.86Z"/></g></svg>